<svg id="icons" xmlns="http://www.w3.org/2000/svg" viewBox="0 0 260 260"><defs><style>.cls-1{fill:#237aba;fill-rule:evenodd}</style></defs><title>1</title><path class="cls-1" d="M170 190v20H50V30h120v20h20V20a9.73 9.73 0 0 0-9.68-10h-140A10.27 10.27 0 0 0 30 20v220a10.29 10.29 0 0 0 10.34 10h140a9.71 9.71 0 0 0 9.66-10v-50zm-59.67 50a10 10 0 1 1 10-10 10 10 0 0 1-10 10z"/><path class="cls-1" d="M234 70H106a6 6 0 0 0-6 6v14h120l-20 20H100v54a6 6 0 0 0 6 6h128a6 6 0 0 0 6-6V76a6 6 0 0 0-6-6z"/></svg>