<svg id="b26bece2-fa75-4844-83cd-30bc5f6fb38d" data-name="Blue" xmlns="http://www.w3.org/2000/svg" viewBox="0 0 260 260"><circle cx="145.2" cy="45" r="35"/><path d="M240,130H229.6c-4.1-23.5-17.4-44.1-36.4-58.4a55.07,55.07,0,0,1-101.5-13c-1.4.6-2.8,1.2-4.1,1.8L61.8,40,61,78.1a94.93,94.93,0,0,0-22.7,32L38,110H22a12,12,0,0,0-12,12h0v36a12,12,0,0,0,12,12H34.4c6.9,24.4,24,45,46.6,57.4V244a6,6,0,0,0,6,6h18a6,6,0,0,0,6-6v-5.9a107.6,107.6,0,0,0,40,0V244a6,6,0,0,0,6,6h18a6,6,0,0,0,6-6V227.4c28.6-15.6,48.2-44.3,49.9-77.4H240a10,10,0,0,0,0-20ZM86,130a15,15,0,1,1,15-15,15,15,0,0,1-15,15Z"/></svg>